<svg xmlns="http://www.w3.org/2000/svg" width="128" height="128" viewBox="0 0 600 600">
  <g style="display:inline">
    <path d="M64.6 75.2c.4 121.4 2.2 207.5 74.1 301.1l6.9-5c26.1 33.7 59 61.7 90.4 90.4a116 116 0 0 1-39 16.3c-27.6-54-169.7-62.7-195.8 62l.5 76.8 638 .5-.5-196.6c-84.3-35.7-125.4-29.5-180 22-7.7-5.3-9.2-5-18-3.7l.1-37.7c20.3-5 173-46.5 198.5-55.7l-.2-33.5L520 339.3a1548 1548 0 0 1 119.7-58.7l-.2-59.5-86.6 49.6c30.1-31.9 57-56 86.8-83.3V77.2c-48 54.6-128.8 138.9-152.2 159-4-15.4-4-31.3-3.8-41.5 18.9-19.1 39.5-78.6 28.7-88.9 8.4-26.6 14.4-83.4 9.5-89.9-9.5 6-50.4 47.3-80.2 77-49.8-51.5-97.8-68.9-141.8-67.1C248.7 27 161 50.2 106.4 154c-13-24.7-28-56.3-41.8-79Z" style="display:inline;opacity:1;fill:#000;fill-opacity:1"/>
  </g>
  <g style="display:inline">
    <path d="M102.4 210.1c21.4-64 50.2-93.3 73.7-118.4 72.6-57.9 149.8-58.4 204.5-25.2-93.3 10.6-140.3 57-245 176.7-11.3-10.5-26.9-24.3-33.2-33Z" style="display:inline;opacity:1;fill:#677084;fill-opacity:1"/>
    <path d="M187.3 308c18.5-50.9 42.5-103.6 52.2-146.8 22.9-16.6 48.9-48.2 93.6-64.3 39-8.5 73.6-8 91.6 8.8-40.6 35.6-83.4 83-105.3 120l-132 82.3zM504.2 48.7c-24.1 25.6-87.5 93.2-126.8 133.4 35-.8 39.4 3.7 56.6 8 23.2-20.8 48.8-61.3 81.3-76.6a14 14 0 0 0-2.6-7.5 31 31 0 0 0-15.9 6.3zm-49.3 155.9c-3.7-4.3-9-8.6-13.7-11 18.8-15 37-33.6 53.7-49-5.5 22.6-16.5 35.2-40 60zm-93.7 3.9c43-33.7 107.6 12.7 113.4 56 5.6 41.3-18.2 73.8-50 89.6-19.6 9.6-63.8 12-86-25.2a100.7 100.7 0 0 1-11.1-69.3 85.5 85.5 0 0 1 33.7-51z" style="opacity:1;fill:#677084;fill-opacity:1"/>
    <path d="M291.8 400.1c2.4-55 1-59.4-2.5-69 8.3-4.5 15.7-10 22.9-16 10.8 22.2 17.8 40 40 54 4.8 2.2 9.5 4.4 14.5 6.1l-6.2 9.6c-17.8 5.7-49.7 17.4-68.7 15.3z" style="display:inline;opacity:1;fill:#677084;fill-opacity:1"/>
    <path d="M307.2 414.9c-27.2 16-19.7 10.9-63.4 29.7-31.9-29-61.6-50.9-81-80 9.1-4.3 12.3-6.7 19-11.2 54.8.7 68-5 96.5-17.1 4.4 28.5.6 70 4.4 76.7a206 206 0 0 0 24.5 1.9zm-65.6 79.5 3.2-23.6c67.4-7.8 118-31.3 179.3-64l-.4 38.3c-64.1 30.2-109.3 56.7-182 49.3zm-9.8 20.3 60.4-1.8c-6 10.8-39.7 33-70.4 28z" style="opacity:1;fill:#677084;fill-opacity:1"/>
    <path d="M95.5 224.5c12.3 15 27 31 40 41.8 28-30.6 56.3-60.4 85.8-88.7-10.7 31.3-23.3 63.3-35.7 95.2-11.3 29.3-23.8 61.7-40.5 79.3-22.4-39.5-51-80.6-49.6-127.6Z" style="opacity:1;fill:#f02a7d;fill-opacity:1"/>
    <path d="M164.5 469.1c-44.2-21.4-87.6-14.5-124 26.8-30.3 43.8-36.2 84 3.1 106.9a72.4 72.4 0 0 0 34 5c2.3-40.3 9.2-121.8 86.9-138.7z" style="display:inline;opacity:1;fill:#677084;fill-opacity:1"/>
    <path d="M112 616.6c11.1-28.2 26.6-96.1 78-120.3a606 606 0 0 0-55.8 121zm102-124.5c-16.7 22-45 76.3-61.4 125.5l132-.4c62.6-56.5 76.7-89.3 152.4-125a142 142 0 0 1 10.3-28c-36.8 14.4-58.6 21.9-85.7 32-37.6 14-67.6 29.4-116.4 66.9-15.2-5.3-33.5-1.8-46.9-1.2 6-27.3 13.6-45.8 23.3-71.5zm296.5 92.5c-69.7 22.1-99.9-142.3 36.5-170.2a194 194 0 0 1 80.8 20C537 445.9 503 487.8 510.5 584.6z" style="opacity:1;fill:#677084;fill-opacity:1"/>
    <path d="M307.1 617.3c16.7-19.2 36-37.4 54.4-55.7 13 10.1 24 13.5 29.6 21.3l-8.8 7.6a112.9 112.9 0 0 0-36.2-10.1 31.3 31.3 0 0 0-9.5 14.4l29.5 16 44.3-44.1-37.6-16.8c17.1-12.7 34-30.9 61.8-40-.8 24.8-.6 40.4 10.3 58.4L399.5 617z" style="opacity:1;fill:#677084;fill-opacity:1"/>
    <path d="M578.7 507.7c30.2-7.4 43.3 27.7 35.6 50-3 8.6-10.8 15.1-26.7 14.8-15-.8-26.3-6.4-30.9-20.3-4.7-14-1.8-38.7 22-44.5z" style="opacity:1;fill:#f02a7d;fill-opacity:1"/>
  </g>
  <g style="display:inline">
    <path d="M310.5 249.8c-3.5 9.4-6 33.7-5.2 45.7a209.9 209.9 0 0 1-51.6 35.3c-23.5 1.6-52-10.3-56-11.8 25.3-14.8 80.8-47.7 112.8-69.2z" style="display:inline;opacity:1;fill:#0abaee;fill-opacity:1"/>
  </g>
</svg>